<?xml version="1.0" encoding="utf-8"?>
<!-- Generator: Adobe Illustrator 21.1.0, SVG Export Plug-In . SVG Version: 6.00 Build 0)  -->
<svg version="1.1" id="Layer_1" xmlns="http://www.w3.org/2000/svg" xmlns:xlink="http://www.w3.org/1999/xlink" x="0px" y="0px"
	 viewBox="0 0 1366 768" style="enable-background:new 0 0 1366 768;" xml:space="preserve">
<style type="text/css">
	.st0{fill:#23A3DD;}
	.st1{fill:#80D3F1;}
	.st2{fill:#FFFFFF;}
	.st3{fill:#EAF6F7;}
	.st4{fill:#BDE6F1;}
</style>
<symbol  id="Snowflake_1" viewBox="-39 -33.9 78 67.8">
	<g>
		<g>
			<g>
				<path class="st0" d="M39,0c0-1.3-8.4,2.1-14.7,2.5c-3.8,0.2-8.4-6.3-12.1-6C6.3-3.2-1.2,2-1.8,1C-2.4,0,6-4.2,9.3-9.3
					c2.1-3.2-1.3-10.4,0.7-13.5c3.3-5.1,10.4-10.5,9.3-11.1c-1.1-0.6-2.2,8.4-5,14.1c-1.7,3.4-9.6,4.1-11.3,7.5
					C0.5-7.1,1.2,2.1,0,2.1c-1.3,0-0.6-9.3-3.3-14.6c-1.7-3.4-9.6-4.1-11.3-7.4c-2.8-5.6-3.9-14.5-5-13.9c-1.1,0.6,6.1,6.1,9.6,11.4
					c2.1,3.1-1.2,10.4,0.8,13.5C-5.9-4,2.4,0,1.8,1C1.2,2-6.6-3.2-12.6-3.6c-3.8-0.2-8.3,6.3-12,6.1C-30.8,2.1-39-1.3-39,0
					c0,1.3,8.4-2.1,14.7-2.5c3.8-0.2,8.4,6.3,12.1,6C-6.3,3.2,1.2-2,1.8-1C2.4,0-6,4.2-9.3,9.3c-2.1,3.2,1.3,10.3-0.7,13.5
					c-3.3,5.1-10.4,10.5-9.3,11.1c1.1,0.6,2.2-8.4,5-14.1c1.7-3.4,9.6-4.1,11.3-7.5C-0.5,7.1-1.2-2.1,0-2.1c1.3,0,0.6,9.2,3.3,14.6
					c1.7,3.4,9.6,4.1,11.3,7.4c2.8,5.6,3.9,14.5,5,13.9c1.1-0.7-6.1-6.1-9.6-11.4C7.9,19.2,11.2,12,9.2,8.8C5.9,4-2.4,0-1.8-1
					c0.6-1,8.4,4.2,14.4,4.6c3.8,0.2,8.3-6.3,12-6.1C30.8-2.1,39,1.3,39,0z"/>
				<path class="st1" d="M34.2,0c0-1-8.1,2.8-14.4,3.5C16.2,3.9,11.3-2.4,7.7-2C1.9-1.3-5.4,4.2-5.9,3.5C-6.4,2.7,2.2-1.2,5.7-6.1
					c2.1-3-1-10.2,1.1-13.2c3.6-5,10.7-10.1,9.9-10.5c-0.8-0.4-1.5,8.5-3.9,14.3C11.4-12.1,3.6-11,2.1-7.6C-0.2-2.3,0.9,6.8,0,6.8
					c-0.9,0,0-9.2-2.4-14.7c-1.5-3.4-9.4-4.4-10.9-7.8c-2.5-5.6-3.2-14.4-4-13.9C-18.1-29-10.8-23.9-7-18.9c2.2,3-0.8,10.3,1.4,13.2
					C-2.1-1,6.4,2.6,6,3.4c-0.4,0.8-8-4.7-14-5.4c-3.7-0.4-8.5,5.9-12.2,5.5c-6-0.6-13.9-4.4-13.9-3.4c0,1,8.1-2.8,14.4-3.5
					c3.7-0.4,8.5,5.9,12.2,5.4C-1.9,1.3,5.4-4.2,5.9-3.5C6.4-2.7-2.2,1.2-5.7,6.1c-2.1,3,1,10.2-1.1,13.2c-3.6,5-10.7,10.1-9.9,10.5
					c0.8,0.4,1.5-8.5,3.9-14.3c1.4-3.4,9.3-4.5,10.7-7.9C0.2,2.3-0.9-6.8,0-6.8c0.9,0,0,9.2,2.4,14.7c1.5,3.4,9.4,4.4,10.9,7.8
					c2.5,5.6,3.2,14.4,4,13.9C18.1,29,10.8,23.9,7,18.9c-2.2-3,0.8-10.3-1.4-13.2C2.1,1-6.4-2.6-6-3.4c0.4-0.8,8,4.7,14,5.4
					c3.6,0.4,8.4-5.9,12-5.5C26.2-2.8,34.2,0.9,34.2,0z"/>
				<path class="st2" d="M29.4,0c0-0.6-7.8,3.4-13.9,4.4C11.9,5,6.9-1,3.3-0.4c-5.9,1-13.1,6.8-13.4,6.3c-0.3-0.5,8.4-4,12.2-8.7
					C4.4-5.6,1.6-13,3.8-15.8c3.9-4.8,11.2-9.5,10.7-9.8c-0.5-0.3-0.8,8.6-3,14.4c-1.2,3.4-9,4.7-10.3,8.1C-0.8,2.5,0.6,11.6,0,11.6
					c-0.6,0,0.7-9.2-1.4-14.9c-1.3-3.4-9-4.7-10.3-8c-2.2-5.7-2.5-14.5-3-14.2c-0.5,0.3,6.9,5,10.9,9.8C-1.6-12.9-4.3-5.5-2-2.7
					c3.8,4.6,12.4,7.9,12.1,8.4C9.8,6.2,2.5,0.5-3.4-0.5C-7.1-1.1-12.2,5-15.8,4.4c-6-1-13.7-5-13.7-4.4c0,0.6,7.8-3.4,14-4.4
					C-11.9-5-6.9,1-3.3,0.4c5.9-1,13.1-6.8,13.4-6.3c0.3,0.5-8.4,4-12.2,8.7C-4.4,5.6-1.6,13-3.8,15.8c-3.8,4.8-11.2,9.5-10.7,9.8
					c0.5,0.3,0.8-8.6,3-14.4c1.2-3.4,9-4.7,10.3-8.1C0.8-2.5-0.6-11.6,0-11.6c0.6,0-0.7,9.2,1.4,14.9c1.3,3.4,9,4.7,10.3,8
					c2.2,5.7,2.5,14.5,3,14.2c0.5-0.3-6.9-5-10.9-9.8C1.6,12.9,4.3,5.5,2,2.7c-3.8-4.6-12.4-7.9-12.1-8.4c0.3-0.5,7.6,5.3,13.6,6.3
					C7.1,1.1,12.2-5,15.8-4.4C21.7-3.4,29.4,0.6,29.4,0z"/>
				<path class="st3" d="M27,0c0-0.5-7.7,3.8-13.7,4.9C9.8,5.6,4.6-0.3,1,0.4c-5.8,1.1-12.9,7.1-13.1,6.7c-0.2-0.4,8.5-3.8,12.4-8.5
					c2.3-2.8-0.4-10.2,1.9-13C6-19,13.2-23.6,12.8-23.8c-0.4-0.2-0.4,8.7-2.3,14.6C9.4-5.7,1.7-4,0.6-0.6C-1.3,5,0.4,14,0,14
					c-0.5,0,1-9.2-1-15c-1.2-3.4-9-4.9-10.1-8.3c-2-5.7-2.2-14.3-2.6-14.1c-0.4,0.2,7.1,4.7,11.2,9.2c2.4,2.7,0,10.2,2.4,12.9
					c3.9,4.4,12.7,7.4,12.4,7.8C12.1,7,4.9,1.2-1.1,0.1c-3.5-0.6-8.7,5.3-12.2,4.7C-19.3,3.7-27-0.4-27,0c0,0.5,7.7-3.8,13.7-4.9
					C-9.8-5.6-4.5,0.3-1-0.4c5.8-1.1,12.9-7.1,13.1-6.7c0.2,0.4-8.5,3.8-12.4,8.5c-2.3,2.8,0.4,10.2-1.9,12.9
					C-6,19-13.2,23.6-12.8,23.8c0.4,0.2,0.4-8.7,2.3-14.6c1.1-3.5,8.8-5.2,10-8.6C1.3-5-0.4-14,0-14c0.5,0-1,9.2,1,15
					c1.2,3.4,9,4.9,10.1,8.3c2,5.7,2.2,14.3,2.6,14.1C14.1,23,6.6,18.6,2.5,14c-2.4-2.7,0-10.2-2.4-12.9c-3.9-4.4-12.7-7.4-12.4-7.8
					C-12.1-7-4.8-1.2,1.1-0.1c3.5,0.6,8.7-5.3,12.2-4.7C19.3-3.7,27,0.4,27,0z"/>
				<path class="st1" d="M13.5,0c0-0.2-3.8,1.9-6.8,2.5C4.9,2.8,2.3-0.1,0.5,0.2C-2.4,0.8-5.9,3.7-6,3.6c-0.1-0.2,4.2-1.9,6.2-4.3
					c1.2-1.4-0.2-5.1,0.9-6.5c1.9-2.3,5.5-4.6,5.3-4.7C6.2-12,6.2-7.5,5.3-4.6C4.7-2.8,0.8-2,0.3-0.3C-0.6,2.5,0.2,7,0,7
					c-0.2,0,0.5-4.6-0.5-7.5C-1.1-2.2-5-2.9-5.6-4.6c-1-2.8-1.1-7.2-1.3-7.1C-7.1-11.5-3.3-9.3-1.2-7c1.2,1.3,0,5.1,1.2,6.5
					c2,2.2,6.3,3.7,6.2,3.9C6.1,3.5,2.4,0.6-0.6,0.1c-1.8-0.3-4.3,2.7-6.1,2.4c-3-0.5-6.9-2.6-6.9-2.4c0,0.2,3.8-1.9,6.8-2.5
					c1.8-0.3,4.4,2.6,6.2,2.3C2.4-0.8,5.9-3.7,6-3.6c0.1,0.2-4.2,1.9-6.2,4.3c-1.2,1.4,0.2,5.1-0.9,6.5c-1.9,2.3-5.5,4.6-5.3,4.7
					c0.2,0.1,0.2-4.4,1.2-7.3c0.6-1.7,4.4-2.6,5-4.3C0.6-2.5-0.2-7,0-7c0.2,0-0.5,4.6,0.5,7.5C1.1,2.2,5,2.9,5.6,4.6
					c1,2.8,1.1,7.2,1.3,7.1C7.1,11.5,3.3,9.3,1.2,7C0,5.7,1.3,1.9,0.1,0.6c-2-2.2-6.3-3.7-6.2-3.9c0.1-0.2,3.7,2.7,6.7,3.3
					c1.8,0.3,4.3-2.7,6.1-2.4C9.7-1.9,13.5,0.2,13.5,0z"/>
			</g>
		</g>
		<g>
			<g>
				<path class="st0" d="M17.9-17.9c-0.6-0.6-2.9,4.8-5.6,7.9c-1.6,1.8-6.7,1-8.4,2.8C1.5-4.4,0.4,1.5-0.3,1.3
					c-0.8-0.2,1.2-6,0.4-9.8c-0.5-2.4-5.4-4.2-5.9-6.5c-0.8-3.9-0.1-9.6-0.9-9.4c-0.8,0.2,2.9,4.9,4.2,8.8c0.8,2.3-2.5,6.3-1.7,8.6
					c1.2,3.6,5.7,7.5,5.2,8C0.4,1.5-3.6-3-7.3-4.2c-2.3-0.8-6.3,2.6-8.6,1.8c-3.9-1.3-8.5-4.9-8.7-4.1c-0.2,0.8,5.6,0,9.7,0.9
					c2.4,0.5,4.2,5.3,6.6,5.8c3.7,0.8,9.4-1.2,9.6-0.5c0.2,0.7-5.8,1.9-8.7,4.5c-1.8,1.6-0.9,6.7-2.8,8.3c-3,2.7-8.3,4.9-7.7,5.4
					c0.6,0.6,2.9-4.8,5.6-7.9c1.6-1.8,6.7-1,8.4-2.8c2.5-2.8,3.6-8.7,4.3-8.5c0.8,0.2-1.2,6-0.4,9.8c0.5,2.4,5.4,4.2,5.9,6.5
					c0.8,3.9,0.1,9.6,0.9,9.4c0.8-0.2-2.9-4.9-4.2-8.8C1.7,13.4,5,9.4,4.2,7.1C3,3.5-1.5-0.4-0.9-0.9c0.6-0.6,4.5,4,8.2,5.2
					c2.3,0.8,6.3-2.6,8.6-1.8c3.9,1.3,8.5,4.9,8.7,4.1c0.2-0.8-5.6,0-9.6-0.9c-2.4-0.5-4.2-5.3-6.6-5.8C4.5-0.9-1.1,1.1-1.3,0.3
					c-0.2-0.7,5.8-1.9,8.7-4.5c1.8-1.6,0.9-6.7,2.8-8.3C13.2-15.2,18.5-17.3,17.9-17.9z"/>
				<path class="st1" d="M15.7-15.7c-0.5-0.5-2.5,5-5,8.2C9.2-5.7,4.1-6.3,2.6-4.4c-2.4,3-3.2,8.9-3.8,8.8c-0.6-0.2,1.6-5.9,0.9-9.8
					C-0.6-7.8-5.4-9.7-5.7-12c-0.6-3.9,0.3-9.6-0.3-9.4c-0.6,0.2,3.3,4.6,4.8,8.4c0.9,2.2-2.2,6.3-1.3,8.6c1.4,3.5,6.1,7.2,5.7,7.6
					C2.7,3.6-1.1-1.1-4.7-2.5c-2.3-0.9-6.4,2.3-8.6,1.4c-3.7-1.4-8.1-5.1-8.2-4.5C-21.7-5-16-6.1-11.9-5.5C-9.5-5.1-7.5-0.4-5.2,0
					c3.8,0.5,9.3-1.7,9.4-1.1c0.1,0.5-5.9,1.5-8.9,4c-1.9,1.5-1.2,6.6-3.1,8.1c-3.1,2.5-8.4,4.4-8,4.8c0.5,0.5,2.5-5,5-8.2
					c1.5-1.9,6.6-1.2,8.1-3.1c2.4-3,3.2-8.9,3.7-8.8c0.6,0.2-1.6,5.9-0.9,9.8C0.6,7.8,5.4,9.7,5.7,12c0.6,3.9-0.3,9.6,0.3,9.4
					c0.6-0.2-3.3-4.6-4.8-8.4c-0.9-2.2,2.2-6.4,1.3-8.6C1.1,0.9-3.6-2.7-3.1-3.2c0.4-0.4,4.2,4.3,7.8,5.6C7,3.4,11,0.2,13.3,1.1
					c3.7,1.4,8.1,5.1,8.2,4.5C21.7,5,16,6.1,11.9,5.5C9.5,5.1,7.5,0.4,5.2,0C1.4-0.5-4.1,1.8-4.3,1.2c-0.2-0.5,5.9-1.5,8.9-4
					c1.9-1.5,1.1-6.6,3-8C10.8-13.3,16.2-15.3,15.7-15.7z"/>
				<path class="st4" d="M13.5-13.5c-0.3-0.3-2,5.2-4.4,8.5C7.8-3.2,2.7-3.6,1.3-1.7c-2.3,3.2-2.9,9.1-3.3,9.1
					c-0.4-0.1,2-5.7,1.6-9.6C-0.6-4.6-5.3-6.7-5.5-9c-0.4-4,0.8-9.5,0.4-9.4c-0.4,0.1,3.6,4.3,5.2,8c1,2.1-2,6.3-1,8.4
					c1.6,3.5,6.5,7.1,6.2,7.4C5.1,5.6,1.4,0.8-2.1-0.8c-2.1-1-6.3,2-8.4,1.1c-3.6-1.6-7.8-5.5-7.9-5.1C-18.6-4.5-13-5.8-9-5.4
					c2.3,0.2,4.5,4.9,6.8,5.1C1.7,0.1,7.2-2.4,7.3-2c0.1,0.4-5.9,1.1-9.1,3.4c-1.9,1.4-1.5,6.5-3.4,7.9c-3.2,2.3-8.6,4-8.3,4.3
					c0.3,0.3,2-5.2,4.4-8.5c1.4-1.9,6.5-1.4,7.8-3.3c2.3-3.2,2.9-9.1,3.3-9c0.4,0.1-2,5.7-1.6,9.6C0.6,4.6,5.3,6.7,5.5,9
					c0.4,4-0.8,9.5-0.4,9.4c0.4-0.1-3.6-4.3-5.2-8c-1-2.1,2-6.3,1-8.4c-1.6-3.5-6.5-7.1-6.2-7.4c0.3-0.3,3.9,4.6,7.5,6.2
					c2.1,1,6.3-2,8.4-1c3.6,1.6,7.8,5.5,7.9,5.1C18.6,4.5,13,5.8,9,5.4C6.6,5.2,4.5,0.5,2.2,0.3C-1.7-0.1-7.2,2.4-7.3,2
					c-0.1-0.4,5.9-1.1,9.1-3.4c1.9-1.4,1.5-6.5,3.4-7.9C8.4-11.6,13.8-13.3,13.5-13.5z"/>
				<path class="st3" d="M12.4-12.4c-0.2-0.2-1.8,5.3-4,8.6C7.1-1.9,2-2.2,0.7-0.3C-1.5,2.9-2,8.9-2.3,8.8c-0.3-0.1,2.1-5.7,1.8-9.6
					c-0.2-2.3-4.9-4.5-5.1-6.8C-6-11.5-4.7-16.9-5-16.9c-0.3,0.1,3.8,4.2,5.7,7.8C1.7-6.9-1.1-2.6,0-0.5c1.7,3.4,6.6,6.8,6.5,7
					C6.2,6.7,2.7,1.7-0.9,0C-3-1-7.3,1.9-9.4,0.9C-12.9-0.8-17-4.7-17-4.4c-0.1,0.3,5.4-1.1,9.4-0.9c2.3,0.1,4.7,4.7,7,4.8
					c3.8,0.2,9.2-2.4,9.3-2.1c0.1,0.2-6,0.9-9.2,3.2C-2.4,1.9-2,7-3.9,8.3c-3.3,2.3-8.7,3.9-8.5,4.1c0.2,0.2,1.8-5.3,4-8.6
					C-7.1,1.9-2,2.2-0.6,0.3C1.5-2.9,2-8.9,2.3-8.8c0.3,0.1-2.1,5.7-1.8,9.6c0.2,2.3,4.9,4.5,5.1,6.8C6,11.5,4.7,16.9,5,16.9
					c0.3-0.1-3.8-4.2-5.7-7.8C-1.7,6.9,1.1,2.6,0,0.5c-1.7-3.4-6.6-6.8-6.5-7C-6.2-6.7-2.7-1.7,0.9,0C3,1,7.3-1.9,9.4-0.9
					C12.9,0.8,17,4.7,17,4.4c0.1-0.3-5.4,1.1-9.4,0.9c-2.3-0.1-4.7-4.7-7-4.8c-3.8-0.2-9.2,2.4-9.3,2.1c-0.1-0.2,6-0.9,9.2-3.2
					C2.4-1.9,2-7,3.9-8.3C7.2-10.6,12.6-12.2,12.4-12.4z"/>
				<path class="st2" d="M6.2-6.2c-0.1-0.1-0.9,2.6-2,4.3C3.5-1,1-1.1,0.3-0.1C-0.8,1.5-1,4.5-1.1,4.4c-0.1,0,1.1-2.8,0.9-4.8
					c-0.1-1.2-2.4-2.3-2.5-3.4C-3-5.7-2.4-8.5-2.5-8.4c-0.1,0,1.9,2.1,2.8,3.9C0.9-3.5-0.5-1.3,0-0.3c0.9,1.7,3.3,3.4,3.2,3.5
					C3.1,3.3,1.3,0.9-0.4,0C-1.5-0.5-3.6,1-4.7,0.5c-1.8-0.8-3.8-2.8-3.8-2.7c0,0.1,2.7-0.6,4.7-0.5c1.2,0.1,2.3,2.4,3.5,2.4
					c1.9,0.1,4.6-1.2,4.7-1.1c0,0.1-3,0.5-4.6,1.6c-1,0.7-0.8,3.2-1.7,3.9c-1.6,1.1-4.4,2-4.3,2c0.1,0.1,0.9-2.6,2-4.3
					C-3.5,1-1,1.1-0.3,0.1C0.8-1.5,1-4.5,1.1-4.4c0.1,0-1.1,2.8-0.9,4.8c0.1,1.2,2.4,2.3,2.5,3.4C3,5.7,2.4,8.5,2.5,8.4
					c0.1,0-1.9-2.1-2.8-3.9C-0.9,3.5,0.5,1.3,0,0.3c-0.9-1.7-3.3-3.4-3.2-3.5C-3.1-3.3-1.3-0.9,0.4,0C1.5,0.5,3.6-1,4.7-0.5
					c1.8,0.8,3.8,2.8,3.8,2.6c0-0.1-2.7,0.6-4.7,0.5C2.6,2.6,1.5,0.3,0.3,0.2c-1.9-0.1-4.6,1.2-4.7,1.1c0-0.1,3-0.5,4.6-1.6
					C1.2-0.9,1-3.5,2-4.2C3.6-5.3,6.3-6.1,6.2-6.2z"/>
			</g>
		</g>
	</g>
</symbol>
<use xlink:href="#Snowflake_1"  width="78" height="67.8" x="-39" y="-33.9" transform="matrix(0.4615 0 0 -0.4628 44.0769 47.8461)" style="overflow:visible;opacity:0.4;"/>
<use xlink:href="#Snowflake_1"  width="78" height="67.8" x="-39" y="-33.9" transform="matrix(0.4615 0 0 -0.4628 90.2308 94)" style="overflow:visible;opacity:0.4;"/>
<use xlink:href="#Snowflake_1"  width="78" height="67.8" x="-39" y="-33.9" transform="matrix(0.4615 0 0 -0.4628 90.2308 90.3077)" style="overflow:visible;opacity:0.4;"/>
<use xlink:href="#Snowflake_1"  width="78" height="67.8" x="-39" y="-33.9" transform="matrix(0.4615 0 0 -0.4628 149.3077 47.8461)" style="overflow:visible;opacity:0.4;"/>
<use xlink:href="#Snowflake_1"  width="78" height="67.8" x="-39" y="-33.9" transform="matrix(0.4615 0 0 -0.4628 195.4615 94)" style="overflow:visible;opacity:0.4;"/>
<use xlink:href="#Snowflake_1"  width="78" height="67.8" x="-39" y="-33.9" transform="matrix(0.4615 0 0 -0.4628 44.0769 145.2307)" style="overflow:visible;opacity:0.4;"/>
<use xlink:href="#Snowflake_1"  width="78" height="67.8" x="-39" y="-33.9" transform="matrix(0.4615 0 0 -0.4628 90.2308 191.3846)" style="overflow:visible;opacity:0.4;"/>
<use xlink:href="#Snowflake_1"  width="78" height="67.8" x="-39" y="-33.9" transform="matrix(0.4615 0 0 -0.4628 90.2308 187.6923)" style="overflow:visible;opacity:0.4;"/>
<use xlink:href="#Snowflake_1"  width="78" height="67.8" x="-39" y="-33.9" transform="matrix(0.4615 0 0 -0.4628 39.9231 247.2307)" style="overflow:visible;opacity:0.4;"/>
<use xlink:href="#Snowflake_1"  width="78" height="67.8" x="-39" y="-33.9" transform="matrix(0.4615 0 0 -0.4628 149.3077 145.2307)" style="overflow:visible;opacity:0.4;"/>
<use xlink:href="#Snowflake_1"  width="78" height="67.8" x="-39" y="-33.9" transform="matrix(0.4615 0 0 -0.4628 195.4615 191.3846)" style="overflow:visible;opacity:0.4;"/>
<use xlink:href="#Snowflake_1"  width="78" height="67.8" x="-39" y="-33.9" transform="matrix(0.4615 0 0 -0.4628 239.3077 47.8461)" style="overflow:visible;opacity:0.4;"/>
<use xlink:href="#Snowflake_1"  width="78" height="67.8" x="-39" y="-33.9" transform="matrix(0.4615 0 0 -0.4628 285.4615 94)" style="overflow:visible;opacity:0.4;"/>
<use xlink:href="#Snowflake_1"  width="78" height="67.8" x="-39" y="-33.9" transform="matrix(0.4615 0 0 -0.4628 285.4615 90.3077)" style="overflow:visible;opacity:0.4;"/>
<use xlink:href="#Snowflake_1"  width="78" height="67.8" x="-39" y="-33.9" transform="matrix(0.4615 0 0 -0.4628 344.5385 47.8461)" style="overflow:visible;opacity:0.4;"/>
<use xlink:href="#Snowflake_1"  width="78" height="67.8" x="-39" y="-33.9" transform="matrix(0.4615 0 0 -0.4628 390.6923 94)" style="overflow:visible;opacity:0.4;"/>
<use xlink:href="#Snowflake_1"  width="78" height="67.8" x="-39" y="-33.9" transform="matrix(0.4615 0 0 -0.4628 239.3077 145.2307)" style="overflow:visible;opacity:0.4;"/>
<use xlink:href="#Snowflake_1"  width="78" height="67.8" x="-39" y="-33.9" transform="matrix(0.4615 0 0 -0.4628 285.4615 191.3846)" style="overflow:visible;opacity:0.4;"/>
<use xlink:href="#Snowflake_1"  width="78" height="67.8" x="-39" y="-33.9" transform="matrix(0.4615 0 0 -0.4628 285.4615 187.6923)" style="overflow:visible;opacity:0.4;"/>
<use xlink:href="#Snowflake_1"  width="78" height="67.8" x="-39" y="-33.9" transform="matrix(0.4615 0 0 -0.4628 344.5385 145.2307)" style="overflow:visible;opacity:0.4;"/>
<use xlink:href="#Snowflake_1"  width="78" height="67.8" x="-39" y="-33.9" transform="matrix(0.4615 0 0 -0.4628 390.6923 191.3846)" style="overflow:visible;opacity:0.4;"/>
<use xlink:href="#Snowflake_1"  width="78" height="67.8" x="-39" y="-33.9" transform="matrix(0.4615 0 0 -0.4628 106.3846 273.0769)" style="overflow:visible;opacity:0.4;"/>
<use xlink:href="#Snowflake_1"  width="78" height="67.8" x="-39" y="-33.9" transform="matrix(0.4615 0 0 -0.4628 106.3846 269.3846)" style="overflow:visible;opacity:0.4;"/>
<use xlink:href="#Snowflake_1"  width="78" height="67.8" x="-39" y="-33.9" transform="matrix(0.4615 0 0 -0.4628 165.4615 226.923)" style="overflow:visible;opacity:0.4;"/>
<use xlink:href="#Snowflake_1"  width="78" height="67.8" x="-39" y="-33.9" transform="matrix(0.4615 0 0 -0.4628 211.6154 273.0769)" style="overflow:visible;opacity:0.4;"/>
<use xlink:href="#Snowflake_1"  width="78" height="67.8" x="-39" y="-33.9" transform="matrix(0.4615 0 0 -0.4628 60.2308 324.3077)" style="overflow:visible;opacity:0.4;"/>
<use xlink:href="#Snowflake_1"  width="78" height="67.8" x="-39" y="-33.9" transform="matrix(0.4615 0 0 -0.4628 165.4615 324.3077)" style="overflow:visible;opacity:0.4;"/>
<use xlink:href="#Snowflake_1"  width="78" height="67.8" x="-39" y="-33.9" transform="matrix(0.4615 0 0 -0.4628 308.5385 273.0769)" style="overflow:visible;opacity:0.4;"/>
<use xlink:href="#Snowflake_1"  width="78" height="67.8" x="-39" y="-33.9" transform="matrix(0.4615 0 0 -0.4628 308.5385 269.3846)" style="overflow:visible;opacity:0.4;"/>
<use xlink:href="#Snowflake_1"  width="78" height="67.8" x="-39" y="-33.9" transform="matrix(0.4615 0 0 -0.4628 367.6154 226.923)" style="overflow:visible;opacity:0.4;"/>
<use xlink:href="#Snowflake_1"  width="78" height="67.8" x="-39" y="-33.9" transform="matrix(0.4615 0 0 -0.4628 413.7692 273.0769)" style="overflow:visible;opacity:0.4;"/>
<use xlink:href="#Snowflake_1"  width="78" height="67.8" x="-39" y="-33.9" transform="matrix(0.4615 0 0 -0.4628 262.3846 324.3077)" style="overflow:visible;opacity:0.4;"/>
<use xlink:href="#Snowflake_1"  width="78" height="67.8" x="-39" y="-33.9" transform="matrix(0.4615 0 0 -0.4628 367.6154 324.3077)" style="overflow:visible;opacity:0.4;"/>
<use xlink:href="#Snowflake_1"  width="78" height="67.8" x="-39" y="-33.9" transform="matrix(0.4615 0 0 -0.4628 434.5385 31.6923)" style="overflow:visible;opacity:0.4;"/>
<use xlink:href="#Snowflake_1"  width="78" height="67.8" x="-39" y="-33.9" transform="matrix(0.4615 0 0 -0.4628 480.6923 77.8461)" style="overflow:visible;opacity:0.4;"/>
<use xlink:href="#Snowflake_1"  width="78" height="67.8" x="-39" y="-33.9" transform="matrix(0.4615 0 0 -0.4628 480.6923 74.1538)" style="overflow:visible;opacity:0.4;"/>
<use xlink:href="#Snowflake_1"  width="78" height="67.8" x="-39" y="-33.9" transform="matrix(0.4615 0 0 -0.4628 539.7692 31.6923)" style="overflow:visible;opacity:0.4;"/>
<use xlink:href="#Snowflake_1"  width="78" height="67.8" x="-39" y="-33.9" transform="matrix(0.4615 0 0 -0.4628 585.9231 77.8461)" style="overflow:visible;opacity:0.4;"/>
<use xlink:href="#Snowflake_1"  width="78" height="67.8" x="-39" y="-33.9" transform="matrix(0.4615 0 0 -0.4628 434.5385 129.0769)" style="overflow:visible;opacity:0.4;"/>
<use xlink:href="#Snowflake_1"  width="78" height="67.8" x="-39" y="-33.9" transform="matrix(0.4615 0 0 -0.4628 480.6923 175.2307)" style="overflow:visible;opacity:0.4;"/>
<use xlink:href="#Snowflake_1"  width="78" height="67.8" x="-39" y="-33.9" transform="matrix(0.4615 0 0 -0.4628 480.6923 171.5384)" style="overflow:visible;opacity:0.4;"/>
<use xlink:href="#Snowflake_1"  width="78" height="67.8" x="-39" y="-33.9" transform="matrix(0.4615 0 0 -0.4628 539.7692 129.0769)" style="overflow:visible;opacity:0.4;"/>
<use xlink:href="#Snowflake_1"  width="78" height="67.8" x="-39" y="-33.9" transform="matrix(0.4615 0 0 -0.4628 585.9231 175.2307)" style="overflow:visible;opacity:0.4;"/>
<use xlink:href="#Snowflake_1"  width="78" height="67.8" x="-39" y="-33.9" transform="matrix(0.4615 0 0 -0.4628 496.8462 256.9231)" style="overflow:visible;opacity:0.4;"/>
<use xlink:href="#Snowflake_1"  width="78" height="67.8" x="-39" y="-33.9" transform="matrix(0.4615 0 0 -0.4628 496.8462 253.2307)" style="overflow:visible;opacity:0.4;"/>
<use xlink:href="#Snowflake_1"  width="78" height="67.8" x="-39" y="-33.9" transform="matrix(0.4615 0 0 -0.4628 555.9231 210.7692)" style="overflow:visible;opacity:0.4;"/>
<use xlink:href="#Snowflake_1"  width="78" height="67.8" x="-39" y="-33.9" transform="matrix(0.4615 0 0 -0.4628 602.0769 256.9231)" style="overflow:visible;opacity:0.4;"/>
<use xlink:href="#Snowflake_1"  width="78" height="67.8" x="-39" y="-33.9" transform="matrix(0.4615 0 0 -0.4628 450.6923 308.1538)" style="overflow:visible;opacity:0.4;"/>
<use xlink:href="#Snowflake_1"  width="78" height="67.8" x="-39" y="-33.9" transform="matrix(0.4615 0 0 -0.4628 555.9231 308.1538)" style="overflow:visible;opacity:0.4;"/>
<use xlink:href="#Snowflake_1"  width="78" height="67.8" x="-39" y="-33.9" transform="matrix(0.4615 0 0 -0.4628 657.0769 47.8461)" style="overflow:visible;opacity:0.4;"/>
<use xlink:href="#Snowflake_1"  width="78" height="67.8" x="-39" y="-33.9" transform="matrix(0.4615 0 0 -0.4628 703.2308 94)" style="overflow:visible;opacity:0.4;"/>
<use xlink:href="#Snowflake_1"  width="78" height="67.8" x="-39" y="-33.9" transform="matrix(0.4615 0 0 -0.4628 703.2308 90.3077)" style="overflow:visible;opacity:0.4;"/>
<use xlink:href="#Snowflake_1"  width="78" height="67.8" x="-39" y="-33.9" transform="matrix(0.4615 0 0 -0.4628 762.3077 47.8461)" style="overflow:visible;opacity:0.4;"/>
<use xlink:href="#Snowflake_1"  width="78" height="67.8" x="-39" y="-33.9" transform="matrix(0.4615 0 0 -0.4628 808.4615 94)" style="overflow:visible;opacity:0.4;"/>
<use xlink:href="#Snowflake_1"  width="78" height="67.8" x="-39" y="-33.9" transform="matrix(0.4615 0 0 -0.4628 657.0769 145.2307)" style="overflow:visible;opacity:0.4;"/>
<use xlink:href="#Snowflake_1"  width="78" height="67.8" x="-39" y="-33.9" transform="matrix(0.4615 0 0 -0.4628 703.2308 191.3846)" style="overflow:visible;opacity:0.4;"/>
<use xlink:href="#Snowflake_1"  width="78" height="67.8" x="-39" y="-33.9" transform="matrix(0.4615 0 0 -0.4628 703.2308 187.6923)" style="overflow:visible;opacity:0.4;"/>
<use xlink:href="#Snowflake_1"  width="78" height="67.8" x="-39" y="-33.9" transform="matrix(0.4615 0 0 -0.4628 652.9231 247.2307)" style="overflow:visible;opacity:0.4;"/>
<use xlink:href="#Snowflake_1"  width="78" height="67.8" x="-39" y="-33.9" transform="matrix(0.4615 0 0 -0.4628 762.3077 145.2307)" style="overflow:visible;opacity:0.4;"/>
<use xlink:href="#Snowflake_1"  width="78" height="67.8" x="-39" y="-33.9" transform="matrix(0.4615 0 0 -0.4628 808.4615 191.3846)" style="overflow:visible;opacity:0.4;"/>
<use xlink:href="#Snowflake_1"  width="78" height="67.8" x="-39" y="-33.9" transform="matrix(0.4615 0 0 -0.4628 852.3077 47.8461)" style="overflow:visible;opacity:0.4;"/>
<use xlink:href="#Snowflake_1"  width="78" height="67.8" x="-39" y="-33.9" transform="matrix(0.4615 0 0 -0.4628 898.4615 94)" style="overflow:visible;opacity:0.4;"/>
<use xlink:href="#Snowflake_1"  width="78" height="67.8" x="-39" y="-33.9" transform="matrix(0.4615 0 0 -0.4628 898.4615 90.3077)" style="overflow:visible;opacity:0.4;"/>
<use xlink:href="#Snowflake_1"  width="78" height="67.8" x="-39" y="-33.9" transform="matrix(0.4615 0 0 -0.4628 957.5385 47.8461)" style="overflow:visible;opacity:0.4;"/>
<use xlink:href="#Snowflake_1"  width="78" height="67.8" x="-39" y="-33.9" transform="matrix(0.4615 0 0 -0.4628 1003.6923 94)" style="overflow:visible;opacity:0.4;"/>
<use xlink:href="#Snowflake_1"  width="78" height="67.8" x="-39" y="-33.9" transform="matrix(0.4615 0 0 -0.4628 852.3077 145.2307)" style="overflow:visible;opacity:0.4;"/>
<use xlink:href="#Snowflake_1"  width="78" height="67.8" x="-39" y="-33.9" transform="matrix(0.4615 0 0 -0.4628 898.4615 191.3846)" style="overflow:visible;opacity:0.4;"/>
<use xlink:href="#Snowflake_1"  width="78" height="67.8" x="-39" y="-33.9" transform="matrix(0.4615 0 0 -0.4628 898.4615 187.6923)" style="overflow:visible;opacity:0.4;"/>
<use xlink:href="#Snowflake_1"  width="78" height="67.8" x="-39" y="-33.9" transform="matrix(0.4615 0 0 -0.4628 957.5385 145.2307)" style="overflow:visible;opacity:0.4;"/>
<use xlink:href="#Snowflake_1"  width="78" height="67.8" x="-39" y="-33.9" transform="matrix(0.4615 0 0 -0.4628 1003.6923 191.3846)" style="overflow:visible;opacity:0.4;"/>
<use xlink:href="#Snowflake_1"  width="78" height="67.8" x="-39" y="-33.9" transform="matrix(0.4615 0 0 -0.4628 719.3846 273.0769)" style="overflow:visible;opacity:0.4;"/>
<use xlink:href="#Snowflake_1"  width="78" height="67.8" x="-39" y="-33.9" transform="matrix(0.4615 0 0 -0.4628 719.3846 269.3846)" style="overflow:visible;opacity:0.4;"/>
<use xlink:href="#Snowflake_1"  width="78" height="67.8" x="-39" y="-33.9" transform="matrix(0.4615 0 0 -0.4628 778.4615 226.923)" style="overflow:visible;opacity:0.4;"/>
<use xlink:href="#Snowflake_1"  width="78" height="67.8" x="-39" y="-33.9" transform="matrix(0.4615 0 0 -0.4628 824.6154 273.0769)" style="overflow:visible;opacity:0.4;"/>
<use xlink:href="#Snowflake_1"  width="78" height="67.8" x="-39" y="-33.9" transform="matrix(0.4615 0 0 -0.4628 673.2308 324.3077)" style="overflow:visible;opacity:0.4;"/>
<use xlink:href="#Snowflake_1"  width="78" height="67.8" x="-39" y="-33.9" transform="matrix(0.4615 0 0 -0.4628 778.4615 324.3077)" style="overflow:visible;opacity:0.4;"/>
<use xlink:href="#Snowflake_1"  width="78" height="67.8" x="-39" y="-33.9" transform="matrix(0.4615 0 0 -0.4628 921.5385 273.0769)" style="overflow:visible;opacity:0.4;"/>
<use xlink:href="#Snowflake_1"  width="78" height="67.8" x="-39" y="-33.9" transform="matrix(0.4615 0 0 -0.4628 921.5385 269.3846)" style="overflow:visible;opacity:0.4;"/>
<use xlink:href="#Snowflake_1"  width="78" height="67.8" x="-39" y="-33.9" transform="matrix(0.4615 0 0 -0.4628 980.6154 226.923)" style="overflow:visible;opacity:0.4;"/>
<use xlink:href="#Snowflake_1"  width="78" height="67.8" x="-39" y="-33.9" transform="matrix(0.4615 0 0 -0.4628 1026.7693 273.0769)" style="overflow:visible;opacity:0.4;"/>
<use xlink:href="#Snowflake_1"  width="78" height="67.8" x="-39" y="-33.9" transform="matrix(0.4615 0 0 -0.4628 875.3846 324.3077)" style="overflow:visible;opacity:0.4;"/>
<use xlink:href="#Snowflake_1"  width="78" height="67.8" x="-39" y="-33.9" transform="matrix(0.4615 0 0 -0.4628 980.6154 324.3077)" style="overflow:visible;opacity:0.4;"/>
<use xlink:href="#Snowflake_1"  width="78" height="67.8" x="-39" y="-33.9" transform="matrix(0.4615 0 0 -0.4628 1047.5385 31.6923)" style="overflow:visible;opacity:0.4;"/>
<use xlink:href="#Snowflake_1"  width="78" height="67.8" x="-39" y="-33.9" transform="matrix(0.4615 0 0 -0.4628 1093.6923 77.8461)" style="overflow:visible;opacity:0.4;"/>
<use xlink:href="#Snowflake_1"  width="78" height="67.8" x="-39" y="-33.9" transform="matrix(0.4615 0 0 -0.4628 1093.6923 74.1538)" style="overflow:visible;opacity:0.4;"/>
<use xlink:href="#Snowflake_1"  width="78" height="67.8" x="-39" y="-33.9" transform="matrix(0.4615 0 0 -0.4628 1152.7693 31.6923)" style="overflow:visible;opacity:0.4;"/>
<use xlink:href="#Snowflake_1"  width="78" height="67.8" x="-39" y="-33.9" transform="matrix(0.4615 0 0 -0.4628 1198.9231 77.8461)" style="overflow:visible;opacity:0.4;"/>
<use xlink:href="#Snowflake_1"  width="78" height="67.8" x="-39" y="-33.9" transform="matrix(0.4615 0 0 -0.4628 1047.5385 129.0769)" style="overflow:visible;opacity:0.4;"/>
<use xlink:href="#Snowflake_1"  width="78" height="67.8" x="-39" y="-33.9" transform="matrix(0.4615 0 0 -0.4628 1093.6923 175.2307)" style="overflow:visible;opacity:0.4;"/>
<use xlink:href="#Snowflake_1"  width="78" height="67.8" x="-39" y="-33.9" transform="matrix(0.4615 0 0 -0.4628 1093.6923 171.5384)" style="overflow:visible;opacity:0.4;"/>
<use xlink:href="#Snowflake_1"  width="78" height="67.8" x="-39" y="-33.9" transform="matrix(0.4615 0 0 -0.4628 1152.7693 129.0769)" style="overflow:visible;opacity:0.4;"/>
<use xlink:href="#Snowflake_1"  width="78" height="67.8" x="-39" y="-33.9" transform="matrix(0.4615 0 0 -0.4628 1198.9231 175.2307)" style="overflow:visible;opacity:0.4;"/>
<use xlink:href="#Snowflake_1"  width="78" height="67.8" x="-39" y="-33.9" transform="matrix(0.4615 0 0 -0.4628 1109.8462 256.9231)" style="overflow:visible;opacity:0.4;"/>
<use xlink:href="#Snowflake_1"  width="78" height="67.8" x="-39" y="-33.9" transform="matrix(0.4615 0 0 -0.4628 1109.8462 253.2307)" style="overflow:visible;opacity:0.4;"/>
<use xlink:href="#Snowflake_1"  width="78" height="67.8" x="-39" y="-33.9" transform="matrix(0.4615 0 0 -0.4628 1168.9231 210.7692)" style="overflow:visible;opacity:0.4;"/>
<use xlink:href="#Snowflake_1"  width="78" height="67.8" x="-39" y="-33.9" transform="matrix(0.4615 0 0 -0.4628 1215.0769 256.9231)" style="overflow:visible;opacity:0.4;"/>
<use xlink:href="#Snowflake_1"  width="78" height="67.8" x="-39" y="-33.9" transform="matrix(0.4615 0 0 -0.4628 1063.6923 308.1538)" style="overflow:visible;opacity:0.4;"/>
<use xlink:href="#Snowflake_1"  width="78" height="67.8" x="-39" y="-33.9" transform="matrix(0.4615 0 0 -0.4628 1168.9231 308.1538)" style="overflow:visible;opacity:0.4;"/>
<use xlink:href="#Snowflake_1"  width="78" height="67.8" x="-39" y="-33.9" transform="matrix(0.4615 0 0 -0.4628 44.0769 379.8461)" style="overflow:visible;opacity:0.4;"/>
<use xlink:href="#Snowflake_1"  width="78" height="67.8" x="-39" y="-33.9" transform="matrix(0.4615 0 0 -0.4628 90.2308 426)" style="overflow:visible;opacity:0.4;"/>
<use xlink:href="#Snowflake_1"  width="78" height="67.8" x="-39" y="-33.9" transform="matrix(0.4615 0 0 -0.4628 90.2308 422.3077)" style="overflow:visible;opacity:0.4;"/>
<use xlink:href="#Snowflake_1"  width="78" height="67.8" x="-39" y="-33.9" transform="matrix(0.4615 0 0 -0.4628 149.3077 379.8461)" style="overflow:visible;opacity:0.4;"/>
<use xlink:href="#Snowflake_1"  width="78" height="67.8" x="-39" y="-33.9" transform="matrix(0.4615 0 0 -0.4628 195.4615 426)" style="overflow:visible;opacity:0.4;"/>
<use xlink:href="#Snowflake_1"  width="78" height="67.8" x="-39" y="-33.9" transform="matrix(0.4615 0 0 -0.4628 44.0769 477.2307)" style="overflow:visible;opacity:0.4;"/>
<use xlink:href="#Snowflake_1"  width="78" height="67.8" x="-39" y="-33.9" transform="matrix(0.4615 0 0 -0.4628 90.2308 523.3846)" style="overflow:visible;opacity:0.4;"/>
<use xlink:href="#Snowflake_1"  width="78" height="67.8" x="-39" y="-33.9" transform="matrix(0.4615 0 0 -0.4628 90.2308 519.6923)" style="overflow:visible;opacity:0.4;"/>
<use xlink:href="#Snowflake_1"  width="78" height="67.8" x="-39" y="-33.9" transform="matrix(0.4615 0 0 -0.4628 39.9231 579.2308)" style="overflow:visible;opacity:0.4;"/>
<use xlink:href="#Snowflake_1"  width="78" height="67.8" x="-39" y="-33.9" transform="matrix(0.4615 0 0 -0.4628 149.3077 477.2307)" style="overflow:visible;opacity:0.4;"/>
<use xlink:href="#Snowflake_1"  width="78" height="67.8" x="-39" y="-33.9" transform="matrix(0.4615 0 0 -0.4628 195.4615 523.3846)" style="overflow:visible;opacity:0.4;"/>
<use xlink:href="#Snowflake_1"  width="78" height="67.8" x="-39" y="-33.9" transform="matrix(0.4615 0 0 -0.4628 239.3077 379.8461)" style="overflow:visible;opacity:0.4;"/>
<use xlink:href="#Snowflake_1"  width="78" height="67.8" x="-39" y="-33.9" transform="matrix(0.4615 0 0 -0.4628 285.4615 426)" style="overflow:visible;opacity:0.4;"/>
<use xlink:href="#Snowflake_1"  width="78" height="67.8" x="-39" y="-33.9" transform="matrix(0.4615 0 0 -0.4628 285.4615 422.3077)" style="overflow:visible;opacity:0.4;"/>
<use xlink:href="#Snowflake_1"  width="78" height="67.8" x="-39" y="-33.9" transform="matrix(0.4615 0 0 -0.4628 344.5385 379.8461)" style="overflow:visible;opacity:0.4;"/>
<use xlink:href="#Snowflake_1"  width="78" height="67.8" x="-39" y="-33.9" transform="matrix(0.4615 0 0 -0.4628 390.6923 426)" style="overflow:visible;opacity:0.4;"/>
<use xlink:href="#Snowflake_1"  width="78" height="67.8" x="-39" y="-33.9" transform="matrix(0.4615 0 0 -0.4628 239.3077 477.2307)" style="overflow:visible;opacity:0.4;"/>
<use xlink:href="#Snowflake_1"  width="78" height="67.8" x="-39" y="-33.9" transform="matrix(0.4615 0 0 -0.4628 285.4615 523.3846)" style="overflow:visible;opacity:0.4;"/>
<use xlink:href="#Snowflake_1"  width="78" height="67.8" x="-39" y="-33.9" transform="matrix(0.4615 0 0 -0.4628 285.4615 519.6923)" style="overflow:visible;opacity:0.4;"/>
<use xlink:href="#Snowflake_1"  width="78" height="67.8" x="-39" y="-33.9" transform="matrix(0.4615 0 0 -0.4628 344.5385 477.2307)" style="overflow:visible;opacity:0.4;"/>
<use xlink:href="#Snowflake_1"  width="78" height="67.8" x="-39" y="-33.9" transform="matrix(0.4615 0 0 -0.4628 390.6923 523.3846)" style="overflow:visible;opacity:0.4;"/>
<use xlink:href="#Snowflake_1"  width="78" height="67.8" x="-39" y="-33.9" transform="matrix(0.4615 0 0 -0.4628 106.3846 605.0769)" style="overflow:visible;opacity:0.4;"/>
<use xlink:href="#Snowflake_1"  width="78" height="67.8" x="-39" y="-33.9" transform="matrix(0.4615 0 0 -0.4628 106.3846 601.3846)" style="overflow:visible;opacity:0.4;"/>
<use xlink:href="#Snowflake_1"  width="78" height="67.8" x="-39" y="-33.9" transform="matrix(0.4615 0 0 -0.4628 165.4615 558.923)" style="overflow:visible;opacity:0.4;"/>
<use xlink:href="#Snowflake_1"  width="78" height="67.8" x="-39" y="-33.9" transform="matrix(0.4615 0 0 -0.4628 211.6154 605.0769)" style="overflow:visible;opacity:0.4;"/>
<use xlink:href="#Snowflake_1"  width="78" height="67.8" x="-39" y="-33.9" transform="matrix(0.4615 0 0 -0.4628 60.2308 656.3077)" style="overflow:visible;opacity:0.4;"/>
<use xlink:href="#Snowflake_1"  width="78" height="67.8" x="-39" y="-33.9" transform="matrix(0.4615 0 0 -0.4628 165.4615 656.3077)" style="overflow:visible;opacity:0.4;"/>
<use xlink:href="#Snowflake_1"  width="78" height="67.8" x="-39" y="-33.9" transform="matrix(0.4615 0 0 -0.4628 308.5385 605.0769)" style="overflow:visible;opacity:0.4;"/>
<use xlink:href="#Snowflake_1"  width="78" height="67.8" x="-39" y="-33.9" transform="matrix(0.4615 0 0 -0.4628 308.5385 601.3846)" style="overflow:visible;opacity:0.4;"/>
<use xlink:href="#Snowflake_1"  width="78" height="67.8" x="-39" y="-33.9" transform="matrix(0.4615 0 0 -0.4628 367.6154 558.923)" style="overflow:visible;opacity:0.4;"/>
<use xlink:href="#Snowflake_1"  width="78" height="67.8" x="-39" y="-33.9" transform="matrix(0.4615 0 0 -0.4628 413.7692 605.0769)" style="overflow:visible;opacity:0.4;"/>
<use xlink:href="#Snowflake_1"  width="78" height="67.8" x="-39" y="-33.9" transform="matrix(0.4615 0 0 -0.4628 262.3846 656.3077)" style="overflow:visible;opacity:0.4;"/>
<use xlink:href="#Snowflake_1"  width="78" height="67.8" x="-39" y="-33.9" transform="matrix(0.4615 0 0 -0.4628 367.6154 656.3077)" style="overflow:visible;opacity:0.4;"/>
<use xlink:href="#Snowflake_1"  width="78" height="67.8" x="-39" y="-33.9" transform="matrix(0.4615 0 0 -0.4628 434.5385 363.6923)" style="overflow:visible;opacity:0.4;"/>
<use xlink:href="#Snowflake_1"  width="78" height="67.8" x="-39" y="-33.9" transform="matrix(0.4615 0 0 -0.4628 480.6923 409.8461)" style="overflow:visible;opacity:0.4;"/>
<use xlink:href="#Snowflake_1"  width="78" height="67.8" x="-39" y="-33.9" transform="matrix(0.4615 0 0 -0.4628 480.6923 406.1538)" style="overflow:visible;opacity:0.4;"/>
<use xlink:href="#Snowflake_1"  width="78" height="67.8" x="-39" y="-33.9" transform="matrix(0.4615 0 0 -0.4628 539.7692 363.6923)" style="overflow:visible;opacity:0.4;"/>
<use xlink:href="#Snowflake_1"  width="78" height="67.8" x="-39" y="-33.9" transform="matrix(0.4615 0 0 -0.4628 585.9231 409.8461)" style="overflow:visible;opacity:0.4;"/>
<use xlink:href="#Snowflake_1"  width="78" height="67.8" x="-39" y="-33.9" transform="matrix(0.4615 0 0 -0.4628 434.5385 461.0769)" style="overflow:visible;opacity:0.4;"/>
<use xlink:href="#Snowflake_1"  width="78" height="67.8" x="-39" y="-33.9" transform="matrix(0.4615 0 0 -0.4628 480.6923 507.2307)" style="overflow:visible;opacity:0.4;"/>
<use xlink:href="#Snowflake_1"  width="78" height="67.8" x="-39" y="-33.9" transform="matrix(0.4615 0 0 -0.4628 480.6923 503.5385)" style="overflow:visible;opacity:0.4;"/>
<use xlink:href="#Snowflake_1"  width="78" height="67.8" x="-39" y="-33.9" transform="matrix(0.4615 0 0 -0.4628 539.7692 461.0769)" style="overflow:visible;opacity:0.4;"/>
<use xlink:href="#Snowflake_1"  width="78" height="67.8" x="-39" y="-33.9" transform="matrix(0.4615 0 0 -0.4628 585.9231 507.2307)" style="overflow:visible;opacity:0.4;"/>
<use xlink:href="#Snowflake_1"  width="78" height="67.8" x="-39" y="-33.9" transform="matrix(0.4615 0 0 -0.4628 496.8462 588.923)" style="overflow:visible;opacity:0.4;"/>
<use xlink:href="#Snowflake_1"  width="78" height="67.8" x="-39" y="-33.9" transform="matrix(0.4615 0 0 -0.4628 496.8462 585.2308)" style="overflow:visible;opacity:0.4;"/>
<use xlink:href="#Snowflake_1"  width="78" height="67.8" x="-39" y="-33.9" transform="matrix(0.4615 0 0 -0.4628 555.9231 542.7692)" style="overflow:visible;opacity:0.4;"/>
<use xlink:href="#Snowflake_1"  width="78" height="67.8" x="-39" y="-33.9" transform="matrix(0.4615 0 0 -0.4628 602.0769 588.923)" style="overflow:visible;opacity:0.4;"/>
<use xlink:href="#Snowflake_1"  width="78" height="67.8" x="-39" y="-33.9" transform="matrix(0.4615 0 0 -0.4628 450.6923 640.1538)" style="overflow:visible;opacity:0.4;"/>
<use xlink:href="#Snowflake_1"  width="78" height="67.8" x="-39" y="-33.9" transform="matrix(0.4615 0 0 -0.4628 555.9231 640.1538)" style="overflow:visible;opacity:0.4;"/>
<use xlink:href="#Snowflake_1"  width="78" height="67.8" x="-39" y="-33.9" transform="matrix(0.4615 0 0 -0.4628 657.0769 379.8461)" style="overflow:visible;opacity:0.4;"/>
<use xlink:href="#Snowflake_1"  width="78" height="67.8" x="-39" y="-33.9" transform="matrix(0.4615 0 0 -0.4628 703.2308 426)" style="overflow:visible;opacity:0.4;"/>
<use xlink:href="#Snowflake_1"  width="78" height="67.8" x="-39" y="-33.9" transform="matrix(0.4615 0 0 -0.4628 703.2308 422.3077)" style="overflow:visible;opacity:0.4;"/>
<use xlink:href="#Snowflake_1"  width="78" height="67.8" x="-39" y="-33.9" transform="matrix(0.4615 0 0 -0.4628 762.3077 379.8461)" style="overflow:visible;opacity:0.4;"/>
<use xlink:href="#Snowflake_1"  width="78" height="67.8" x="-39" y="-33.9" transform="matrix(0.4615 0 0 -0.4628 808.4615 426)" style="overflow:visible;opacity:0.4;"/>
<use xlink:href="#Snowflake_1"  width="78" height="67.8" x="-39" y="-33.9" transform="matrix(0.4615 0 0 -0.4628 657.0769 477.2307)" style="overflow:visible;opacity:0.4;"/>
<use xlink:href="#Snowflake_1"  width="78" height="67.8" x="-39" y="-33.9" transform="matrix(0.4615 0 0 -0.4628 703.2308 523.3846)" style="overflow:visible;opacity:0.4;"/>
<use xlink:href="#Snowflake_1"  width="78" height="67.8" x="-39" y="-33.9" transform="matrix(0.4615 0 0 -0.4628 703.2308 519.6923)" style="overflow:visible;opacity:0.4;"/>
<use xlink:href="#Snowflake_1"  width="78" height="67.8" x="-39" y="-33.9" transform="matrix(0.4615 0 0 -0.4628 652.9231 579.2308)" style="overflow:visible;opacity:0.4;"/>
<use xlink:href="#Snowflake_1"  width="78" height="67.8" x="-39" y="-33.9" transform="matrix(0.4615 0 0 -0.4628 762.3077 477.2307)" style="overflow:visible;opacity:0.4;"/>
<use xlink:href="#Snowflake_1"  width="78" height="67.8" x="-39" y="-33.9" transform="matrix(0.4615 0 0 -0.4628 808.4615 523.3846)" style="overflow:visible;opacity:0.4;"/>
<use xlink:href="#Snowflake_1"  width="78" height="67.8" x="-39" y="-33.9" transform="matrix(0.4615 0 0 -0.4628 852.3077 379.8461)" style="overflow:visible;opacity:0.4;"/>
<use xlink:href="#Snowflake_1"  width="78" height="67.8" x="-39" y="-33.9" transform="matrix(0.4615 0 0 -0.4628 898.4615 426)" style="overflow:visible;opacity:0.4;"/>
<use xlink:href="#Snowflake_1"  width="78" height="67.8" x="-39" y="-33.9" transform="matrix(0.4615 0 0 -0.4628 898.4615 422.3077)" style="overflow:visible;opacity:0.4;"/>
<use xlink:href="#Snowflake_1"  width="78" height="67.8" x="-39" y="-33.9" transform="matrix(0.4615 0 0 -0.4628 957.5385 379.8461)" style="overflow:visible;opacity:0.4;"/>
<use xlink:href="#Snowflake_1"  width="78" height="67.8" x="-39" y="-33.9" transform="matrix(0.4615 0 0 -0.4628 1003.6923 426)" style="overflow:visible;opacity:0.4;"/>
<use xlink:href="#Snowflake_1"  width="78" height="67.8" x="-39" y="-33.9" transform="matrix(0.4615 0 0 -0.4628 852.3077 477.2307)" style="overflow:visible;opacity:0.4;"/>
<use xlink:href="#Snowflake_1"  width="78" height="67.8" x="-39" y="-33.9" transform="matrix(0.4615 0 0 -0.4628 898.4615 523.3846)" style="overflow:visible;opacity:0.4;"/>
<use xlink:href="#Snowflake_1"  width="78" height="67.8" x="-39" y="-33.9" transform="matrix(0.4615 0 0 -0.4628 898.4615 519.6923)" style="overflow:visible;opacity:0.4;"/>
<use xlink:href="#Snowflake_1"  width="78" height="67.8" x="-39" y="-33.9" transform="matrix(0.4615 0 0 -0.4628 957.5385 477.2307)" style="overflow:visible;opacity:0.4;"/>
<use xlink:href="#Snowflake_1"  width="78" height="67.8" x="-39" y="-33.9" transform="matrix(0.4615 0 0 -0.4628 1003.6923 523.3846)" style="overflow:visible;opacity:0.4;"/>
<use xlink:href="#Snowflake_1"  width="78" height="67.8" x="-39" y="-33.9" transform="matrix(0.4615 0 0 -0.4628 719.3846 605.0769)" style="overflow:visible;opacity:0.4;"/>
<use xlink:href="#Snowflake_1"  width="78" height="67.8" x="-39" y="-33.9" transform="matrix(0.4615 0 0 -0.4628 719.3846 601.3846)" style="overflow:visible;opacity:0.4;"/>
<use xlink:href="#Snowflake_1"  width="78" height="67.8" x="-39" y="-33.9" transform="matrix(0.4615 0 0 -0.4628 778.4615 558.923)" style="overflow:visible;opacity:0.4;"/>
<use xlink:href="#Snowflake_1"  width="78" height="67.8" x="-39" y="-33.9" transform="matrix(0.4615 0 0 -0.4628 824.6154 605.0769)" style="overflow:visible;opacity:0.4;"/>
<use xlink:href="#Snowflake_1"  width="78" height="67.8" x="-39" y="-33.9" transform="matrix(0.4615 0 0 -0.4628 673.2308 656.3077)" style="overflow:visible;opacity:0.4;"/>
<use xlink:href="#Snowflake_1"  width="78" height="67.8" x="-39" y="-33.9" transform="matrix(0.4615 0 0 -0.4628 778.4615 656.3077)" style="overflow:visible;opacity:0.4;"/>
<use xlink:href="#Snowflake_1"  width="78" height="67.8" x="-39" y="-33.9" transform="matrix(0.4615 0 0 -0.4628 921.5385 605.0769)" style="overflow:visible;opacity:0.4;"/>
<use xlink:href="#Snowflake_1"  width="78" height="67.8" x="-39" y="-33.9" transform="matrix(0.4615 0 0 -0.4628 921.5385 601.3846)" style="overflow:visible;opacity:0.4;"/>
<use xlink:href="#Snowflake_1"  width="78" height="67.8" x="-39" y="-33.9" transform="matrix(0.4615 0 0 -0.4628 980.6154 558.923)" style="overflow:visible;opacity:0.4;"/>
<use xlink:href="#Snowflake_1"  width="78" height="67.8" x="-39" y="-33.9" transform="matrix(0.4615 0 0 -0.4628 1026.7693 605.0769)" style="overflow:visible;opacity:0.4;"/>
<use xlink:href="#Snowflake_1"  width="78" height="67.8" x="-39" y="-33.9" transform="matrix(0.4615 0 0 -0.4628 875.3846 656.3077)" style="overflow:visible;opacity:0.4;"/>
<use xlink:href="#Snowflake_1"  width="78" height="67.8" x="-39" y="-33.9" transform="matrix(0.4615 0 0 -0.4628 980.6154 656.3077)" style="overflow:visible;opacity:0.4;"/>
<use xlink:href="#Snowflake_1"  width="78" height="67.8" x="-39" y="-33.9" transform="matrix(0.4615 0 0 -0.4628 1047.5385 363.6923)" style="overflow:visible;opacity:0.4;"/>
<use xlink:href="#Snowflake_1"  width="78" height="67.8" x="-39" y="-33.9" transform="matrix(0.4615 0 0 -0.4628 1093.6923 409.8461)" style="overflow:visible;opacity:0.4;"/>
<use xlink:href="#Snowflake_1"  width="78" height="67.8" x="-39" y="-33.9" transform="matrix(0.4615 0 0 -0.4628 1093.6923 406.1538)" style="overflow:visible;opacity:0.4;"/>
<use xlink:href="#Snowflake_1"  width="78" height="67.8" x="-39" y="-33.9" transform="matrix(0.4615 0 0 -0.4628 1152.7693 363.6923)" style="overflow:visible;opacity:0.4;"/>
<use xlink:href="#Snowflake_1"  width="78" height="67.8" x="-39" y="-33.9" transform="matrix(0.4615 0 0 -0.4628 1198.9231 409.8461)" style="overflow:visible;opacity:0.4;"/>
<use xlink:href="#Snowflake_1"  width="78" height="67.8" x="-39" y="-33.9" transform="matrix(0.4615 0 0 -0.4628 1047.5385 461.0769)" style="overflow:visible;opacity:0.4;"/>
<use xlink:href="#Snowflake_1"  width="78" height="67.8" x="-39" y="-33.9" transform="matrix(0.4615 0 0 -0.4628 1093.6923 507.2307)" style="overflow:visible;opacity:0.4;"/>
<use xlink:href="#Snowflake_1"  width="78" height="67.8" x="-39" y="-33.9" transform="matrix(0.4615 0 0 -0.4628 1093.6923 503.5385)" style="overflow:visible;opacity:0.4;"/>
<use xlink:href="#Snowflake_1"  width="78" height="67.8" x="-39" y="-33.9" transform="matrix(0.4615 0 0 -0.4628 1152.7693 461.0769)" style="overflow:visible;opacity:0.4;"/>
<use xlink:href="#Snowflake_1"  width="78" height="67.8" x="-39" y="-33.9" transform="matrix(0.4615 0 0 -0.4628 1198.9231 507.2307)" style="overflow:visible;opacity:0.4;"/>
<use xlink:href="#Snowflake_1"  width="78" height="67.8" x="-39" y="-33.9" transform="matrix(0.4615 0 0 -0.4628 1109.8462 588.923)" style="overflow:visible;opacity:0.4;"/>
<use xlink:href="#Snowflake_1"  width="78" height="67.8" x="-39" y="-33.9" transform="matrix(0.4615 0 0 -0.4628 1109.8462 585.2308)" style="overflow:visible;opacity:0.4;"/>
<use xlink:href="#Snowflake_1"  width="78" height="67.8" x="-39" y="-33.9" transform="matrix(0.4615 0 0 -0.4628 1168.9231 542.7692)" style="overflow:visible;opacity:0.4;"/>
<use xlink:href="#Snowflake_1"  width="78" height="67.8" x="-39" y="-33.9" transform="matrix(0.4615 0 0 -0.4628 1215.0769 588.923)" style="overflow:visible;opacity:0.4;"/>
<use xlink:href="#Snowflake_1"  width="78" height="67.8" x="-39" y="-33.9" transform="matrix(0.4615 0 0 -0.4628 1063.6923 640.1538)" style="overflow:visible;opacity:0.4;"/>
<use xlink:href="#Snowflake_1"  width="78" height="67.8" x="-39" y="-33.9" transform="matrix(0.4615 0 0 -0.4628 1168.9231 640.1538)" style="overflow:visible;opacity:0.4;"/>
<use xlink:href="#Snowflake_1"  width="78" height="67.8" x="-39" y="-33.9" transform="matrix(0.4615 0 0 -0.4628 39.9231 737.2308)" style="overflow:visible;opacity:0.4;"/>
<use xlink:href="#Snowflake_1"  width="78" height="67.8" x="-39" y="-33.9" transform="matrix(0.4615 0 0 -0.4628 106.3846 708.0769)" style="overflow:visible;opacity:0.4;"/>
<use xlink:href="#Snowflake_1"  width="78" height="67.8" x="-39" y="-33.9" transform="matrix(0.4615 0 0 -0.4628 106.3846 704.3846)" style="overflow:visible;opacity:0.4;"/>
<use xlink:href="#Snowflake_1"  width="78" height="67.8" x="-39" y="-33.9" transform="matrix(0.4615 0 0 -0.4628 211.6154 708.0769)" style="overflow:visible;opacity:0.4;"/>
<use xlink:href="#Snowflake_1"  width="78" height="67.8" x="-39" y="-33.9" transform="matrix(0.4615 0 0 -0.4628 308.5385 708.0769)" style="overflow:visible;opacity:0.4;"/>
<use xlink:href="#Snowflake_1"  width="78" height="67.8" x="-39" y="-33.9" transform="matrix(0.4615 0 0 -0.4628 308.5385 704.3846)" style="overflow:visible;opacity:0.4;"/>
<use xlink:href="#Snowflake_1"  width="78" height="67.8" x="-39" y="-33.9" transform="matrix(0.4615 0 0 -0.4628 413.7692 708.0769)" style="overflow:visible;opacity:0.4;"/>
<use xlink:href="#Snowflake_1"  width="78" height="67.8" x="-39" y="-33.9" transform="matrix(0.4615 0 0 -0.4628 496.8462 691.923)" style="overflow:visible;opacity:0.4;"/>
<use xlink:href="#Snowflake_1"  width="78" height="67.8" x="-39" y="-33.9" transform="matrix(0.4615 0 0 -0.4628 496.8462 688.2308)" style="overflow:visible;opacity:0.4;"/>
<use xlink:href="#Snowflake_1"  width="78" height="67.8" x="-39" y="-33.9" transform="matrix(0.4615 0 0 -0.4628 602.0769 691.923)" style="overflow:visible;opacity:0.4;"/>
<use xlink:href="#Snowflake_1"  width="78" height="67.8" x="-39" y="-33.9" transform="matrix(0.4615 0 0 -0.4628 450.6923 743.1538)" style="overflow:visible;opacity:0.4;"/>
<use xlink:href="#Snowflake_1"  width="78" height="67.8" x="-39" y="-33.9" transform="matrix(0.4615 0 0 -0.4628 555.9231 743.1538)" style="overflow:visible;opacity:0.4;"/>
<use xlink:href="#Snowflake_1"  width="78" height="67.8" x="-39" y="-33.9" transform="matrix(0.4615 0 0 -0.4628 652.9231 730.2308)" style="overflow:visible;opacity:0.4;"/>
<use xlink:href="#Snowflake_1"  width="78" height="67.8" x="-39" y="-33.9" transform="matrix(0.4615 0 0 -0.4628 719.3846 708.0769)" style="overflow:visible;opacity:0.4;"/>
<use xlink:href="#Snowflake_1"  width="78" height="67.8" x="-39" y="-33.9" transform="matrix(0.4615 0 0 -0.4628 719.3846 704.3846)" style="overflow:visible;opacity:0.4;"/>
<use xlink:href="#Snowflake_1"  width="78" height="67.8" x="-39" y="-33.9" transform="matrix(0.4615 0 0 -0.4628 824.6154 708.0769)" style="overflow:visible;opacity:0.4;"/>
<use xlink:href="#Snowflake_1"  width="78" height="67.8" x="-39" y="-33.9" transform="matrix(0.4615 0 0 -0.4628 921.5385 708.0769)" style="overflow:visible;opacity:0.4;"/>
<use xlink:href="#Snowflake_1"  width="78" height="67.8" x="-39" y="-33.9" transform="matrix(0.4615 0 0 -0.4628 932.5385 732.3846)" style="overflow:visible;opacity:0.4;"/>
<use xlink:href="#Snowflake_1"  width="78" height="67.8" x="-39" y="-33.9" transform="matrix(0.4615 0 0 -0.4628 1026.7693 708.0769)" style="overflow:visible;opacity:0.4;"/>
<use xlink:href="#Snowflake_1"  width="78" height="67.8" x="-39" y="-33.9" transform="matrix(0.4615 0 0 -0.4628 1109.8462 691.923)" style="overflow:visible;opacity:0.4;"/>
<use xlink:href="#Snowflake_1"  width="78" height="67.8" x="-39" y="-33.9" transform="matrix(0.4615 0 0 -0.4628 1109.8462 688.2308)" style="overflow:visible;opacity:0.4;"/>
<use xlink:href="#Snowflake_1"  width="78" height="67.8" x="-39" y="-33.9" transform="matrix(0.4615 0 0 -0.4628 1215.0769 691.923)" style="overflow:visible;opacity:0.4;"/>
<use xlink:href="#Snowflake_1"  width="78" height="67.8" x="-39" y="-33.9" transform="matrix(0.4615 0 0 -0.4628 1063.6923 743.1538)" style="overflow:visible;opacity:0.4;"/>
<use xlink:href="#Snowflake_1"  width="78" height="67.8" x="-39" y="-33.9" transform="matrix(0.4615 0 0 -0.4628 1168.9231 743.1538)" style="overflow:visible;opacity:0.4;"/>
<use xlink:href="#Snowflake_1"  width="78" height="67.8" x="-39" y="-33.9" transform="matrix(0.4615 0 0 -0.4628 1253.7693 31.6923)" style="overflow:visible;opacity:0.4;"/>
<use xlink:href="#Snowflake_1"  width="78" height="67.8" x="-39" y="-33.9" transform="matrix(0.4615 0 0 -0.4628 1299.9231 77.8461)" style="overflow:visible;opacity:0.4;"/>
<use xlink:href="#Snowflake_1"  width="78" height="67.8" x="-39" y="-33.9" transform="matrix(0.4615 0 0 -0.4628 1253.7693 129.0769)" style="overflow:visible;opacity:0.4;"/>
<use xlink:href="#Snowflake_1"  width="78" height="67.8" x="-39" y="-33.9" transform="matrix(0.4615 0 0 -0.4628 1299.9231 175.2307)" style="overflow:visible;opacity:0.4;"/>
<use xlink:href="#Snowflake_1"  width="78" height="67.8" x="-39" y="-33.9" transform="matrix(0.4615 0 0 -0.4628 1269.9231 210.7692)" style="overflow:visible;opacity:0.4;"/>
<use xlink:href="#Snowflake_1"  width="78" height="67.8" x="-39" y="-33.9" transform="matrix(0.4615 0 0 -0.4628 1316.0769 256.9231)" style="overflow:visible;opacity:0.4;"/>
<use xlink:href="#Snowflake_1"  width="78" height="67.8" x="-39" y="-33.9" transform="matrix(0.4615 0 0 -0.4628 1299.9231 322.1538)" style="overflow:visible;opacity:0.4;"/>
<use xlink:href="#Snowflake_1"  width="78" height="67.8" x="-39" y="-33.9" transform="matrix(0.4615 0 0 -0.4628 1253.7693 363.6923)" style="overflow:visible;opacity:0.4;"/>
<use xlink:href="#Snowflake_1"  width="78" height="67.8" x="-39" y="-33.9" transform="matrix(0.4615 0 0 -0.4628 1299.9231 409.8461)" style="overflow:visible;opacity:0.4;"/>
<use xlink:href="#Snowflake_1"  width="78" height="67.8" x="-39" y="-33.9" transform="matrix(0.4615 0 0 -0.4628 1253.7693 461.0769)" style="overflow:visible;opacity:0.4;"/>
<use xlink:href="#Snowflake_1"  width="78" height="67.8" x="-39" y="-33.9" transform="matrix(0.4615 0 0 -0.4628 1299.9231 507.2307)" style="overflow:visible;opacity:0.4;"/>
<use xlink:href="#Snowflake_1"  width="78" height="67.8" x="-39" y="-33.9" transform="matrix(0.4615 0 0 -0.4628 1269.9231 542.7692)" style="overflow:visible;opacity:0.4;"/>
<use xlink:href="#Snowflake_1"  width="78" height="67.8" x="-39" y="-33.9" transform="matrix(0.4615 0 0 -0.4628 1316.0769 588.923)" style="overflow:visible;opacity:0.4;"/>
<use xlink:href="#Snowflake_1"  width="78" height="67.8" x="-39" y="-33.9" transform="matrix(0.4615 0 0 -0.4628 1269.9231 640.1538)" style="overflow:visible;opacity:0.4;"/>
<use xlink:href="#Snowflake_1"  width="78" height="67.8" x="-39" y="-33.9" transform="matrix(0.4615 0 0 -0.4628 1316.0769 691.923)" style="overflow:visible;opacity:0.4;"/>
<use xlink:href="#Snowflake_1"  width="78" height="67.8" x="-39" y="-33.9" transform="matrix(0.4615 0 0 -0.4628 1269.9231 743.1538)" style="overflow:visible;opacity:0.4;"/>
</svg>
